<svg width="36" height="32" viewBox="0 0 36 32" fill="none" xmlns="http://www.w3.org/2000/svg">
<path d="M14.4395 1.17521C13.5776 0.31336 12.1803 0.31336 11.3184 1.17521C10.4566 2.03705 10.4566 3.43438 11.3184 4.29623L17.5605 10.5383C18.4223 11.4001 19.8197 11.4001 20.6815 10.5383C21.5434 9.67643 21.5434 8.2791 20.6815 7.41725L14.4395 1.17521Z" fill="#FF6C6C"/>
<path d="M20.6815 4.29616C21.5433 3.43431 21.5433 2.03698 20.6815 1.17514C19.8196 0.313289 18.4223 0.313289 17.5605 1.17514L11.3184 7.41718C10.4566 8.27903 10.4566 9.67636 11.3184 10.5382C12.1803 11.4 13.5776 11.4 14.4394 10.5382L20.6815 4.29616Z" fill="#FF6C6C"/>
<path d="M4.29616 11.3185C3.43431 10.4567 2.03698 10.4567 1.17514 11.3185C0.313289 12.1804 0.313289 13.5777 1.17514 14.4395L7.41718 20.6816C8.27903 21.5434 9.67636 21.5434 10.5382 20.6816C11.4 19.8197 11.4 18.4224 10.5382 17.5606L4.29616 11.3185Z" fill="#75D3D1"/>
<path d="M10.5382 14.4395C11.4 13.5776 11.4 12.1803 10.5382 11.3184C9.67633 10.4566 8.279 10.4566 7.41715 11.3184L1.1751 17.5605C0.313257 18.4223 0.313257 19.8197 1.1751 20.6815C2.03695 21.5434 3.43428 21.5434 4.29613 20.6815L10.5382 14.4395Z" fill="#75D3D1"/>
<path d="M14.4395 21.4618C13.5776 20.6 12.1803 20.6 11.3184 21.4618C10.4566 22.3237 10.4566 23.721 11.3184 24.5829L17.5605 30.8249C18.4223 31.6867 19.8197 31.6867 20.6815 30.8249C21.5434 29.963 21.5434 28.5657 20.6815 27.7039L14.4395 21.4618Z" fill="#D1DB4A"/>
<path d="M20.6815 24.5828C21.5433 23.7209 21.5433 22.3236 20.6815 21.4618C19.8196 20.5999 18.4223 20.5999 17.5605 21.4618L11.3184 27.7038C10.4566 28.5656 10.4566 29.963 11.3184 30.8248C12.1803 31.6867 13.5776 31.6867 14.4394 30.8248L20.6815 24.5828Z" fill="#D1DB4A"/>
</svg>
