<svg width="20" height="20" viewBox="0 0 20 20" fill="none" xmlns="http://www.w3.org/2000/svg">
<g clip-path="url(#clip0)">
<path d="M18.8963 20C19.5058 20 20 19.5057 20 18.8962V1.1038C20 0.494052 19.5057 0 18.8963 0H1.10396C0.494205 0 0.000152588 0.494127 0.000152588 1.1038V18.8961C0.000152588 19.5057 0.494205 19.9999 1.10396 19.9999H18.8963V20Z" fill="#485A96"/>
<path d="M13.7997 20V12.2549H16.3994L16.7886 9.23648H13.7996V7.30936C13.7996 6.43546 14.0423 5.83994 15.2955 5.83994L16.8938 5.83919V3.13955C16.6173 3.10283 15.6685 3.02063 14.5648 3.02063C12.2603 3.02063 10.6826 4.42725 10.6826 7.01051V9.23648H8.07623V12.2549H10.6826V19.9999H13.7997V20Z" fill="white"/>
</g>
<defs>
<clipPath id="clip0">
<rect width="20" height="20" fill="white"/>
</clipPath>
</defs>
</svg>
