<svg width="20" height="20" viewBox="0 0 20 20" fill="none" xmlns="http://www.w3.org/2000/svg">
<g clip-path="url(#clip0)">
<path d="M19.5304 10.1871C19.5304 9.36773 19.4639 8.76979 19.32 8.14972H9.96495V11.848H15.4562C15.3455 12.7671 14.7477 14.1512 13.4191 15.0813L13.4005 15.2051L16.3584 17.497L16.5633 17.5174C18.4454 15.7789 19.5304 13.2211 19.5304 10.1871Z" fill="#4285F4"/>
<path d="M9.96499 19.9314C12.6552 19.9314 14.9137 19.0455 16.5633 17.5175L13.4191 15.0814C12.5778 15.6682 11.4485 16.0779 9.96499 16.0779C7.33009 16.0779 5.09374 14.3395 4.29655 11.9367L4.1797 11.9466L1.10403 14.3273L1.06381 14.4391C2.70232 17.6946 6.06793 19.9314 9.96499 19.9314Z" fill="#34A853"/>
<path d="M4.29654 11.9367C4.0862 11.3166 3.96446 10.6522 3.96446 9.96568C3.96446 9.27911 4.0862 8.61476 4.28548 7.99469L4.27991 7.86263L1.1657 5.4437L1.06381 5.49217C0.388499 6.84308 0.00100708 8.36011 0.00100708 9.96568C0.00100708 11.5713 0.388499 13.0882 1.06381 14.4391L4.29654 11.9367Z" fill="#FBBC05"/>
<path d="M9.96499 3.85339C11.836 3.85339 13.098 4.66171 13.8177 5.33721L16.6297 2.5911C14.9027 0.985527 12.6552 3.05176e-05 9.96499 3.05176e-05C6.06793 3.05176e-05 2.70232 2.23675 1.06381 5.49217L4.28548 7.99469C5.09374 5.59186 7.33009 3.85339 9.96499 3.85339Z" fill="#EB4335"/>
</g>
<defs>
<clipPath id="clip0">
<rect width="19.5407" height="20" fill="white"/>
</clipPath>
</defs>
</svg>
